<svg version="1.1" id="Layer_1" xmlns="http://www.w3.org/2000/svg" xmlns:xlink="http://www.w3.org/1999/xlink" x="0px" y="0px"
	 width="100%" viewBox="0 0 1024 1024" enable-background="new 0 0 1024 1024" xml:space="preserve">
<path fill="#000000" opacity="1.000000" stroke="none" 
	d="
M340.205627,278.202209 
	C350.726624,260.213959 352.443451,241.017838 349.548584,221.007050 
	C349.967621,220.928253 350.386658,220.849472 350.805695,220.770676 
	C354.995300,225.182495 359.175751,229.603088 363.376068,234.004669 
	C388.184113,260.001740 416.508759,281.518127 447.709167,299.176819 
	C470.064667,311.829529 492.301910,324.591553 512.206848,340.971100 
	C531.602966,356.931946 548.161377,375.217560 557.984802,398.743256 
	C562.374207,409.255371 564.969482,420.265900 565.321167,431.701965 
	C565.453003,435.989716 566.962097,438.967407 570.592834,441.676178 
	C591.356628,457.167664 608.562073,475.646912 617.895203,500.391296 
	C625.973206,521.807983 626.915894,543.867798 623.779724,566.296814 
	C619.267273,598.568237 608.800598,629.399536 601.002869,660.877625 
	C594.907654,685.482971 590.297729,710.372864 590.471741,735.829102 
	C590.624084,758.125427 594.609497,779.843384 602.254578,800.845642 
	C602.794495,802.328918 604.019287,803.732910 603.174011,805.806885 
	C598.906799,805.086426 595.667358,802.470764 592.527466,799.905518 
	C575.879883,786.304504 568.238037,768.161865 566.716736,747.196960 
	C564.598267,718.001831 569.099487,689.393250 575.961731,661.211914 
	C581.991699,636.448547 576.927185,613.774719 565.941345,591.678711 
	C549.470825,558.551453 520.325562,543.058594 486.305969,534.506775 
	C469.822845,530.363281 453.139038,529.356445 436.392487,533.283020 
	C429.328491,534.939209 423.139069,538.624268 416.677277,541.682068 
	C414.909943,542.518372 413.127350,543.322388 411.161713,544.228821 
	C408.679108,540.345215 408.775421,536.262939 408.202423,532.434814 
	C404.524719,507.864929 392.077728,488.304138 373.824402,472.103821 
	C361.415009,461.090118 346.768005,453.954987 331.255585,448.491486 
	C327.981049,447.338196 326.718262,445.927612 328.126373,442.281555 
	C340.926544,409.138184 333.668671,378.566772 315.740997,349.537018 
	C309.582428,339.564667 301.523285,331.078827 293.328430,322.756256 
	C292.053925,321.461884 290.588470,320.311035 289.967743,318.501373 
	C290.750549,316.144257 292.976044,315.983337 294.743408,315.286469 
	C313.721252,307.804382 329.542786,296.459412 340.205627,278.202209 
M345.651550,352.948792 
	C356.897766,376.725769 361.455750,401.566284 357.405945,427.734192 
	C356.894531,431.038727 357.948486,432.898499 360.968933,434.429565 
	C391.977478,450.147766 414.211304,473.947266 426.709625,506.543457 
	C427.769287,509.307068 429.120361,510.048248 431.950867,509.321381 
	C438.245544,507.704834 444.665283,506.910645 451.183624,506.647644 
	C470.061005,505.885986 488.310394,509.099701 506.165680,514.966125 
	C511.477539,516.711365 516.747314,518.584717 522.430664,520.534668 
	C525.186951,512.675842 527.767517,505.315460 530.349792,497.955719 
	C535.048157,484.564850 538.399536,470.850433 540.543884,456.816895 
	C541.175720,452.682587 540.353027,449.862030 536.337463,447.870483 
	C530.673706,445.061554 525.328979,441.614838 519.700806,438.727631 
	C501.028168,429.148590 481.232452,421.916412 462.934387,411.537964 
	C420.666779,387.564209 386.973206,355.466156 366.959015,310.398926 
	C364.552368,304.979706 362.445740,299.427277 360.063873,293.603607 
	C359.240601,294.320923 358.660675,294.655945 358.313843,295.153473 
	C350.816620,305.908234 341.814972,315.222260 331.279175,322.998199 
	C328.401215,325.122223 329.632935,326.825439 331.104095,328.800079 
	C336.594452,336.169678 341.416687,343.944489 345.651550,352.948792 
M491.686188,398.787720 
	C507.042664,406.130371 522.957520,412.224915 537.656982,420.528259 
	C538.969788,418.689972 538.558655,417.724762 538.322754,416.773285 
	C534.836731,402.715912 527.543457,390.665985 518.260925,379.809113 
	C500.343872,358.853333 477.772308,343.798370 453.890625,330.721558 
	C432.103058,318.791412 410.482269,306.730804 391.471436,290.535950 
	C390.735443,289.908997 389.955994,288.553162 388.302490,289.784271 
	C394.323395,304.983276 401.891968,319.336731 411.435547,332.652863 
	C432.177002,361.593231 459.228912,382.891266 491.686188,398.787720 
M596.893982,514.565247 
	C591.155640,495.453644 579.516968,480.550385 564.199097,467.737549 
	C563.683044,468.803070 563.376160,469.207489 563.286133,469.655487 
	C559.238586,489.798767 552.622498,509.169067 545.516785,528.382507 
	C544.363892,531.499756 545.270813,533.159668 547.927490,534.875488 
	C560.417725,542.942444 570.539795,553.407654 578.762390,565.783325 
	C584.190002,573.952271 588.726135,582.613953 593.557861,592.718567 
	C600.255859,566.223389 604.423889,541.060242 596.893982,514.565247 
z"/>
<path fill="#000000" opacity="1.000000" stroke="none" 
	d="
M613.465210,454.512085 
	C608.192932,447.374634 602.475464,441.100220 596.584900,434.964935 
	C576.576477,414.125366 564.466736,389.172943 560.147827,360.827087 
	C556.376892,336.078094 562.059387,312.624817 572.731506,290.129822 
	C579.935364,274.945404 586.492615,259.433594 589.207031,242.645889 
	C589.567505,240.416122 589.808594,238.167038 590.207825,235.149567 
	C596.140503,239.111160 599.302612,244.186523 601.281982,250.078903 
	C604.616333,260.004791 604.125488,270.084564 601.903870,280.113800 
	C600.426331,286.783630 598.389038,293.331238 595.444702,299.515015 
	C575.768738,340.838196 581.699951,378.841919 609.759094,414.286835 
	C618.761353,425.658752 628.910034,436.073151 637.529358,447.718079 
	C662.635742,481.637268 671.710388,513.277710 668.739685,556.742859 
	C678.819519,540.914612 688.308105,526.216248 692.719177,508.942780 
	C694.368408,502.484650 695.112976,495.965576 694.233948,489.199890 
	C692.248108,473.915985 685.489624,460.687439 677.388489,447.950989 
	C668.691162,434.277161 657.571045,422.433716 648.213135,409.261688 
	C634.845642,390.445953 624.547302,370.293243 621.204468,347.108765 
	C620.461731,341.957672 620.157410,336.718292 621.050354,331.680756 
	C621.762268,327.664673 620.881165,324.730072 618.682434,321.531891 
	C613.587708,314.121185 613.255127,306.308228 617.853455,298.493256 
	C622.263062,290.999054 629.232300,287.803070 637.191772,286.613373 
	C639.206848,288.835297 637.971497,290.552765 637.629272,292.260620 
	C635.067871,305.044006 638.830444,312.066193 650.938660,316.363678 
	C662.337952,320.409454 671.303711,327.561340 678.315186,337.236450 
	C685.157104,346.677612 691.811340,356.255005 698.513184,365.796997 
	C699.060669,366.576508 699.340393,367.544067 699.726562,368.385101 
	C692.175964,373.918610 681.698364,374.294586 674.306030,369.407776 
	C669.199402,366.031952 665.533691,361.324890 662.068237,356.381012 
	C657.884949,350.413055 653.596191,344.487885 646.156311,341.285919 
	C644.899658,344.888397 646.275330,347.851013 646.927917,350.733612 
	C651.644287,371.569244 662.774902,389.079834 675.946472,405.413788 
	C687.890808,420.225891 699.420227,435.286743 707.849792,452.457550 
	C713.764221,464.504913 717.944153,477.120239 719.006714,490.555969 
	C720.136414,504.840149 716.456604,518.285828 710.943787,531.295288 
	C703.299988,549.333496 692.331665,565.510193 682.131958,582.096558 
	C661.987549,614.854553 646.905273,649.633362 639.082214,687.408813 
	C637.918823,693.026306 636.143860,693.705383 631.501221,690.223022 
	C625.430725,685.669495 623.244873,679.086792 622.727844,671.902466 
	C622.114624,663.379822 623.341492,655.033936 625.252808,646.690063 
	C630.561951,623.513977 637.100891,600.653320 642.021667,577.363342 
	C651.621887,531.925598 642.320923,491.214966 613.465210,454.512085 
z"/>
<path fill="#000000" opacity="1.000000" stroke="none" 
	d="
M736.074707,322.340729 
	C738.423828,333.625458 728.949585,350.009155 717.100159,354.778503 
	C715.211853,349.359070 713.162720,344.000580 711.496094,338.525604 
	C710.210266,334.301666 707.906738,331.628357 703.812683,329.508667 
	C689.993896,322.354156 680.114502,310.994965 674.139587,296.906311 
	C669.128174,285.089539 661.844360,276.711029 649.497559,272.672089 
	C644.390015,271.001312 640.218201,267.592743 637.132080,262.973877 
	C632.871155,256.596771 632.630371,246.781158 639.698486,239.149460 
	C640.098022,239.373901 640.756897,239.510239 640.899597,239.858276 
	C644.678650,249.071930 652.311279,252.510040 661.444458,254.406509 
	C676.872437,257.610077 687.739868,266.507294 693.588928,281.407532 
	C695.961548,287.451416 699.132507,293.150818 703.456360,298.099915 
	C708.459961,303.826965 714.149231,308.469940 721.673706,310.648773 
	C727.886780,312.447998 733.519043,315.261902 736.074707,322.340729 
z"/>
</svg>